<!-- Generator: Adobe Illustrator 21.0.2, SVG Export Plug-In  -->
<svg version="1.1"
	 xmlns="http://www.w3.org/2000/svg" xmlns:xlink="http://www.w3.org/1999/xlink" xmlns:a="http://ns.adobe.com/AdobeSVGViewerExtensions/3.0/"
	 x="0px" y="0px" width="457.1px" height="456.1px" viewBox="0 0 457.1 456.1" style="enable-background:new 0 0 457.1 456.1;"
	 xml:space="preserve">
<defs>
</defs>
<g>
	<path d="M452.8,4.4c-14.8-14.8-65,11.4-79.8,26.2l-59.3,59.3H44c-6.4,0-11.9,4.6-13.1,10.9c-1.2,6.3,2.2,12.6,8.2,14.9l178.3,70.5
		L108,295.5H4.6c-2.2,0-4.1,1.6-4.5,3.8c-0.4,2.2,0.8,4.4,2.8,5.2l87,34.4c0.5,2.2,1.2,4.3,2.1,6.4l-3.8,3.8
		c-5.4,5.4-5.4,14.2,0,19.6c5.4,5.4,14.2,5.4,19.6,0l3.7-3.7c2.1,0.9,4.3,1.7,6.5,2.2l33.5,86c0.8,2.1,3,3.3,5.2,2.9
		c0.9-0.2,1.8-0.6,2.4-1.3c0.8-0.8,1.4-2,1.4-3.3V350.2l111.1-111.1L341.5,418c2.3,6,8.6,9.5,14.9,8.3c2.7-0.5,5.1-1.8,7-3.7
		c2.4-2.4,3.9-5.8,3.9-9.5V143.5l59.3-59.3C441.3,69.4,467.6,19.2,452.8,4.4z"/>
</g>
</svg>
