<!-- Generator: Adobe Illustrator 21.0.2, SVG Export Plug-In  -->
<svg version="1.1"
	 xmlns="http://www.w3.org/2000/svg" xmlns:xlink="http://www.w3.org/1999/xlink" xmlns:a="http://ns.adobe.com/AdobeSVGViewerExtensions/3.0/"
	 x="0px" y="0px" width="512px" height="221.9px" viewBox="0 0 512 221.9" style="enable-background:new 0 0 512 221.9;"
	 xml:space="preserve">
<defs>
</defs>
<path d="M0,119.5C0,158,5.7,200.1,47.4,221c1.1,0.6,2.4,0.9,3.7,0.9h384.1c2.7,0,5.3-1.3,6.9-3.5l68.3-93.9c1.9-2.6,2.2-6,0.7-8.9
	c-1.5-2.9-4.4-4.7-7.6-4.7H8.5C3.8,110.9,0,114.8,0,119.5z M401.1,132.3c0-2.4,1.9-4.3,4.3-4.3h8.5c2.4,0,4.3,1.9,4.3,4.3v8.5
	c0,2.4-1.9,4.3-4.3,4.3h-8.5c-2.4,0-4.3-1.9-4.3-4.3V132.3z M366.9,132.3c0-2.4,1.9-4.3,4.3-4.3h8.5c2.4,0,4.3,1.9,4.3,4.3v8.5
	c0,2.4-1.9,4.3-4.3,4.3h-8.5c-2.4,0-4.3-1.9-4.3-4.3V132.3z M332.8,140.8v-8.5c0-2.4,1.9-4.3,4.3-4.3h8.5c2.4,0,4.3,1.9,4.3,4.3v8.5
	c0,2.4-1.9,4.3-4.3,4.3h-8.5C334.7,145.1,332.8,143.2,332.8,140.8L332.8,140.8z M298.7,132.3c0-2.4,1.9-4.3,4.3-4.3h8.5
	c2.4,0,4.3,1.9,4.3,4.3v8.5c0,2.4-1.9,4.3-4.3,4.3h-8.5c-2.4,0-4.3-1.9-4.3-4.3V132.3z M264.5,132.3c0-2.4,1.9-4.3,4.3-4.3h8.5
	c2.4,0,4.3,1.9,4.3,4.3v8.5c0,2.4-1.9,4.3-4.3,4.3h-8.5c-2.4,0-4.3-1.9-4.3-4.3V132.3z M230.4,140.8v-8.5c0-2.4,1.9-4.3,4.3-4.3h8.5
	c2.4,0,4.3,1.9,4.3,4.3v8.5c0,2.4-1.9,4.3-4.3,4.3h-8.5C232.3,145.1,230.4,143.2,230.4,140.8L230.4,140.8z M196.3,132.3
	c0-2.4,1.9-4.3,4.3-4.3h8.5c2.4,0,4.3,1.9,4.3,4.3v8.5c0,2.4-1.9,4.3-4.3,4.3h-8.5c-2.4,0-4.3-1.9-4.3-4.3V132.3z M162.1,132.3
	c0-2.4,1.9-4.3,4.3-4.3h8.5c2.4,0,4.3,1.9,4.3,4.3v8.5c0,2.4-1.9,4.3-4.3,4.3h-8.5c-2.4,0-4.3-1.9-4.3-4.3V132.3z M128,140.8v-8.5
	c0-2.4,1.9-4.3,4.3-4.3h8.5c2.4,0,4.3,1.9,4.3,4.3v8.5c0,2.4-1.9,4.3-4.3,4.3h-8.5C129.9,145.1,128,143.2,128,140.8L128,140.8z
	 M93.9,132.3c0-2.4,1.9-4.3,4.3-4.3h8.5c2.4,0,4.3,1.9,4.3,4.3v8.5c0,2.4-1.9,4.3-4.3,4.3h-8.5c-2.4,0-4.3-1.9-4.3-4.3V132.3z
	 M59.7,132.3c0-2.4,1.9-4.3,4.3-4.3h8.5c2.4,0,4.3,1.9,4.3,4.3v8.5c0,2.4-1.9,4.3-4.3,4.3H64c-2.4,0-4.3-1.9-4.3-4.3V132.3z
	 M72.5,45.4c-1.1,2.8,1,5.8,4,5.8H301c3,0,5.1-3,4-5.8L299.3,31c-1.3-3.3-4.4-5.4-8-5.4H256V4.3c0-2.4-1.9-4.3-4.3-4.3l-8.5,0
	c-2.4,0-4.3,1.9-4.3,4.3v21.3h-42.7V4.3c0-2.4-1.9-4.3-4.3-4.3l-8.5,0c-2.4,0-4.3,1.9-4.3,4.3v21.3h-42.7V4.3c0-2.4-1.9-4.3-4.3-4.3
	l-8.5,0c-2.4,0-4.3,1.9-4.3,4.3v21.3H86.1c-3.5,0-6.7,2.2-7.9,5.4L72.5,45.4L72.5,45.4z M36.2,88.2c-1,2.8,1.1,5.7,4,5.7h349.6
	c2.9,0,5-2.9,4-5.7l-5.1-14.2c-1.2-3.4-4.4-5.7-8-5.7H49.2c-3.6,0-6.8,2.3-8,5.7L36.2,88.2L36.2,88.2z"/>
</svg>
