<!-- Generator: Adobe Illustrator 21.0.2, SVG Export Plug-In  -->
<svg version="1.1"
	 xmlns="http://www.w3.org/2000/svg" xmlns:xlink="http://www.w3.org/1999/xlink" xmlns:a="http://ns.adobe.com/AdobeSVGViewerExtensions/3.0/"
	 x="0px" y="0px" width="460px" height="582.7px" viewBox="0 0 460 582.7" style="enable-background:new 0 0 460 582.7;"
	 xml:space="preserve">
<defs>
</defs>
<g>
	<g id="Layer_1_1_">
		<path d="M456.9,545.7l-85.4-155.5c24.2-3.8,42.1-25.5,42.1-49.7V110.9C413.6,49.7,363.9,0,302.7,0H157.3
			C96.1,0,45.1,49.7,45.1,112.2v228.2c0,25.5,17.8,45.9,42.1,49.7L3,545.7c-6.4,12.8-2.5,28,10.2,34.4c3.8,2.5,7.7,2.5,11.5,2.5
			c8.9,0,17.8-5.1,21.7-12.8l7.7-12.8h351.9l7.6,12.8c5.1,8.9,12.8,12.8,21.7,12.8c3.8,0,7.6-1.3,11.5-2.5
			C459.5,573.8,463.3,558.5,456.9,545.7z M337.1,431H122.9l21.7-39.5h170.9L337.1,431z M333.3,345.5c-20.4,0-37-16.6-37-37
			c0-20.4,16.6-37,37-37c20.4,0,37,16.6,37,37C370.2,327.7,353.7,345.5,333.3,345.5z M89.7,126.2c0-39.5,31.9-71.4,70.1-71.4h139
			c38.2,0,71.4,31.9,71.4,71.4v61.2c0,14-11.5,24.2-25.5,24.2H115.2c-14,0-24.2-11.5-24.2-24.2L89.7,126.2L89.7,126.2z M126.7,270.3
			c20.4,0,37,16.6,37,37c0,20.4-16.6,37-37,37s-37-16.6-37-37C89.7,286.9,106.3,270.3,126.7,270.3z M74.4,518.9l28.1-49.7h255
			l28,49.7H74.4z"/>
	</g>
</g>
</svg>
