<!-- Generator: Adobe Illustrator 21.0.2, SVG Export Plug-In  -->
<svg version="1.1"
	 xmlns="http://www.w3.org/2000/svg" xmlns:xlink="http://www.w3.org/1999/xlink" xmlns:a="http://ns.adobe.com/AdobeSVGViewerExtensions/3.0/"
	 x="0px" y="0px" width="612px" height="387.6px" viewBox="0 0 612 387.6" style="enable-background:new 0 0 612 387.6;"
	 xml:space="preserve">
<defs>
</defs>
<g>
	<g>
		<path d="M504.9,283.6c-28.7,0-52,23.3-52,52c0,28.7,23.3,52,52,52c28.7,0,52-23.3,52-52C556.9,306.9,533.6,283.6,504.9,283.6z
			 M504.9,350.9c-8.4,0-15.3-6.9-15.3-15.3s6.9-15.3,15.3-15.3s15.3,6.9,15.3,15.3S513.3,350.9,504.9,350.9z"/>
		<path d="M499.9,67.3H410c-6.8,0-12.2,5.5-12.2,12.2v238.7c0,6.8,5.5,12.2,12.2,12.2h13c6.1,0,11.4-4.4,12.2-10.4
			c4.8-36.8,34.2-59.6,69.7-59.6s64.9,22.8,69.7,59.6c0.8,6,6.1,10.4,12.2,10.4h13c6.8,0,12.2-5.5,12.2-12.2V198.9
			c0-2.9-1-5.7-2.9-7.9L509.3,71.7C507,68.9,503.5,67.3,499.9,67.3z M422.3,165.2V104c0-6.8,5.5-12.2,12.2-12.2h53.9
			c3.6,0,7.1,1.6,9.4,4.4l51,61.2c6.6,8,1,20.1-9.4,20.1H434.5C427.8,177.5,422.3,172,422.3,165.2z"/>
		<path d="M12.2,330.5h31.3c6.1,0,11.4-4.4,12.2-10.4c4.8-36.8,34.2-59.6,69.7-59.6s64.9,22.8,69.7,59.6c0.8,6,6.1,10.4,12.2,10.4
			h153.7c6.8,0,12.2-5.5,12.2-12.2v-306c0-6.8-5.5-12.2-12.2-12.2H12.2C5.5,0,0,5.5,0,12.2v306C0,325,5.5,330.5,12.2,330.5z"/>
		<path d="M125.5,283.6c-28.7,0-52,23.3-52,52c0,28.7,23.3,52,52,52c28.7,0,52-23.3,52-52C177.5,306.9,154.1,283.6,125.5,283.6z
			 M125.5,350.9c-8.4,0-15.3-6.9-15.3-15.3s6.9-15.3,15.3-15.3s15.3,6.9,15.3,15.3S133.9,350.9,125.5,350.9z"/>
	</g>
</g>
</svg>
